<?xml version="1.0" encoding="utf-8"?>
<!-- Generator: Adobe Illustrator 24.0.1, SVG Export Plug-In . SVG Version: 6.00 Build 0)  -->
<svg version="1.1" xmlns="http://www.w3.org/2000/svg" xmlns:xlink="http://www.w3.org/1999/xlink" x="0px" y="0px" width="170.1px"
	 height="113.4px" viewBox="0 0 170.1 113.4" style="enable-background:new 0 0 170.1 113.4;" xml:space="preserve">
<style type="text/css">
	.st0{fill:#FFFFFF;}
	.st1{display:none;fill:#28BAF9;}
	.st2{fill:#00A4FF;}
</style>
<g id="图层_1">
	<circle class="st1" cx="49.1" cy="57.7" r="4.3"/>
	<g>
		<path d="M90,53.2h-2.6l-1.6,9H84l1.6-9H83l0.3-1.6h7.1L90,53.2z"/>
		<path d="M95.6,56.9l2.1,5.4h-2l-1.6-4.6h-1.6l-0.8,4.6h-1.9l1.9-10.6h1.9l-0.8,4.5h1.5l3-4.5h2L95.6,56.9z"/>
		<path d="M102.3,53.2l-0.5,3h3.7l-0.6,1.5h-3.3l-0.5,3.1h4.2l-0.6,1.6h-5.7l1.9-10.6h6l-0.6,1.5H102.3z"/>
		<path d="M106.5,60.7h3.6c0.9,0,1.1-0.1,1.2-1.1l0.1-0.7c0.1-0.5,0.1-0.8,0.1-1c0-0.3-0.2-0.3-0.7-0.3h-2.1c-1.1,0-1.5-0.4-1.5-1.3
			c0-0.3,0.1-0.7,0.1-1.1l0.3-1.5c0.3-1.7,0.8-2.1,2.6-2.1h4.1l-0.6,1.5h-3.4c-0.6,0-0.8,0.1-0.9,0.9l-0.2,0.9
			c-0.1,0.4-0.1,0.6-0.1,0.8c0,0.2,0.2,0.3,0.6,0.3h1.8c1.2,0,1.9,0.2,1.9,1.2c0,0.4-0.1,1.2-0.2,1.5l-0.3,1.4
			c-0.2,0.8-0.4,1.5-1,1.8c-0.5,0.3-1.2,0.4-2.1,0.4h-3.3L106.5,60.7z"/>
		<path d="M117.2,58.9c-0.1,0.6-0.2,1.1-0.2,1.4c0,0.5,0.4,0.6,1.3,0.6h1l-0.6,1.4h-1c-1.6,0-2.4-0.4-2.4-1.6c0-0.4,0.1-1,0.2-1.7
			l0.6-3.2h-1l0.3-1.4h1.1l0.4-2.4h1.7l-0.4,2.4h2.2l-0.3,1.4h-2.2L117.2,58.9z"/>
		<path d="M127.8,55.8c0,0.3-0.1,0.9-0.2,1.4l-0.9,5.1h-4.2c-0.9,0-1.8-0.3-1.8-1.4c0-0.3,0-0.6,0.2-1.3l0.1-0.5
			c0.2-1.1,0.5-1.5,1.2-1.7c0.4-0.1,0.9-0.1,1.6-0.1h2.1v0c0.1-0.4,0.1-0.8,0.1-1c0-0.4-0.2-0.6-1-0.6h-2.8l-0.2-1.4h3.6
			C127.1,54.3,127.8,54.8,127.8,55.8z M125.2,60.9l0.4-2.2h-2.2c-0.6,0-0.7,0.2-0.8,0.7l0,0.3c-0.1,0.4-0.1,0.8-0.1,0.9
			c0,0.2,0.2,0.3,0.5,0.3H125.2z"/>
		<path d="M128.9,60.4c0-0.3,0.1-0.8,0.2-1.5l0.3-1.8c0.2-1,0.4-1.8,0.9-2.2c0.5-0.4,1.2-0.6,2.4-0.6h2.6l-0.6,1.4h-2.1
			c-0.5,0-0.8,0.1-1,0.3c-0.2,0.2-0.3,0.5-0.4,1.1l-0.3,1.9c-0.1,0.6-0.2,1-0.2,1.2c0,0.6,0.3,0.7,1.2,0.7h2.5l-0.6,1.4h-2.3
			C129.7,62.3,128.9,61.8,128.9,60.4z"/>
		<path d="M140.7,57.9l1.6,4.4h-1.9l-1.2-3.5H138l-0.6,3.5h-1.7l1.9-11.2h1.7l-1.1,6.3h1.1l2.4-3h1.9L140.7,57.9z"/>
	</g>
	<g>
		<path class="st2" d="M49.1,30.5L26.5,43.6v26.2l22.7,13.1l22.7-13.1V43.6L49.1,30.5z M56.2,60.6L56.2,60.6c-0.2,0-0.4,0-0.7,0
			c1.8,1.2,2.9,2.9,2.9,4.9c0,3.7-4.2,6.7-9.3,6.7c-5.2,0-9.3-3-9.3-6.7c0-1.9,1.1-3.6,2.9-4.9c-0.2,0-0.4,0-0.7,0v0
			c-3.9,0-7.1-3.2-7.1-7.1c0-3.9,3.2-7.1,7.1-7.1c3.9,0,7.1,3.2,7.1,7.1c0-3.9,3.2-7.1,7.1-7.1c3.9,0,7.1,3.2,7.1,7.1
			C63.3,57.4,60.1,60.6,56.2,60.6z"/>
		<polygon class="st2" points="49.1,60 45.7,58 45.2,58.9 48.6,60.9 48.6,64.8 49.6,64.8 49.6,60.9 53.1,58.9 52.6,58 		"/>
		<circle class="st2" cx="42.1" cy="53.5" r="2.3"/>
		<circle class="st2" cx="56.2" cy="53.5" r="2.3"/>
	</g>
	<rect y="-113.1" width="170.1" height="113.4"/>
</g>
<g id="图层_2">
</g>
</svg>
